<?xml version="1.0" encoding="UTF-8"?>
<!DOCTYPE svg PUBLIC "-//W3C//DTD SVG 1.1//EN" "http://www.w3.org/Graphics/SVG/1.1/DTD/svg11.dtd">
<!-- Creator: CorelDRAW 2018 (64 Bit Versão de avaliação) -->
<svg xmlns="http://www.w3.org/2000/svg" xml:space="preserve" width="270.933mm" height="203.2mm" version="1.1" style="shape-rendering:geometricPrecision; text-rendering:geometricPrecision; image-rendering:optimizeQuality; fill-rule:evenodd; clip-rule:evenodd"
viewBox="0 0 27093.32 20320"
 xmlns:xlink="http://www.w3.org/1999/xlink">
 <defs>
  <style type="text/css">
   <![CDATA[
    .fil0 {fill:#0071B7}
   ]]>
  </style>
 </defs>
 <g id="Camada_x0020_1">
  <metadata id="CorelCorpID_0Corel-Layer"/>
  <g id="_1471427104">
   <g>
    <path class="fil0" d="M28294.11 15508.35c-326.62,0 -591.37,264.79 -591.37,591.37l0 2404.92c0,326.58 264.79,591.37 591.37,591.37 326.58,0 591.37,-264.79 591.37,-591.37l0 -2404.92c0.04,-326.59 -264.75,-591.37 -591.37,-591.37z"/>
   </g>
  </g>
  <g id="_1471427360">
   <g>
    <path class="fil0" d="M30659.61 15508.35c-326.58,0 -591.37,264.79 -591.37,591.37l0 2404.92c0,326.58 264.79,591.37 591.37,591.37 326.58,0 591.37,-264.79 591.37,-591.37l0 -2404.92c0.04,-326.59 -264.75,-591.37 -591.37,-591.37z"/>
   </g>
  </g>
  <g id="_1483527888">
   <g>
    <path class="fil0" d="M33025.12 15508.35c-326.62,0 -591.38,264.79 -591.38,591.37l0 2404.92c0,326.58 264.8,591.37 591.38,591.37 326.57,0 591.37,-264.79 591.37,-591.37l0 -2404.92c0.04,-326.59 -264.76,-591.37 -591.37,-591.37z"/>
   </g>
  </g>
  <g id="_1483527088">
   <g>
    <path class="fil0" d="M35430.07 15508.35c-326.58,0 -591.37,264.79 -591.37,591.37l0 2404.92c0,326.58 264.79,591.37 591.37,591.37 326.58,0 591.37,-264.79 591.37,-591.37l0 -2404.92c0,-326.59 -264.79,-591.37 -591.37,-591.37z"/>
   </g>
  </g>
  <g id="_1285741376">
   <g>
    <path class="fil0" d="M40752.45 4272.19c0,-326.62 -264.79,-591.37 -591.37,-591.37 -1878.34,0 -3614.65,1000.21 -4568.21,2590.16 -422.05,-145.44 -874.74,-224.62 -1345.53,-224.62 -628.08,0 -1252.27,142.99 -1813.55,406.16l0 -3402.52c0,-978.27 -795.86,-1774.14 -1774.14,-1774.14 -978.27,0 -1774.14,795.87 -1774.14,1774.14l0.01 5332.85 -933.16 -1536.86c-414.53,-694.75 -1128.77,-1175.11 -1951.25,-1283.38l-810.41 -2011.05c-440.79,-1093.84 -1804.07,-1461.6 -2735.21,-736.94 -463.45,360.7 -792.54,616.87 -1258.68,979.66 -930.59,724.27 -909.76,2136.26 42.86,2832.43l1750.53 1279.35c-95.24,809.58 183.83,1610.12 743.72,2184.01 20.32,24.24 42.11,46.37 65.31,66.49l621.21 620.78 -2079.52 -0.01c-978.28,0 -1774.15,795.87 -1774.15,1774.14 0,799.51 531.72,1476.94 1260.02,1697.88l948.82 5729.77c143.19,859 879.12,1482.46 1749.99,1482.46l12267.99 0c870.82,0 1606.79,-623.46 1750.06,-1483.06l948.74 -5729.09c728.35,-220.98 1260.06,-898.41 1260.06,-1697.92 0,-707.27 -416.16,-1319.03 -1016.42,-1603.79 654.46,-901.61 1016.42,-1994.69 1016.42,-3127.22l0 -3548.31zm-8318.7 3549.5c510.48,-378.8 1157.87,-592.64 1813.55,-592.64 1630.44,0 2956.88,1326.47 2956.88,2956.88 0,200.19 -20.32,397.89 -59.54,591.37l-4710.89 0 0 -2955.61zm-2365.54 -4771.69l0.04 0c0,-326.1 265.3,-591.37 591.37,-591.37 326.1,0 591.37,265.3 591.37,591.37l-0.01 7727.33 -1182.77 0 0 -7727.33zm-6656.47 3699.14l-1474.17 -1077.38c-317.37,-231.94 -324.68,-702.57 -14.32,-944.16l162.68 -126.58 1493.85 1919.38c-60.13,73.38 -116.18,149.71 -168.04,228.74zm-392.4 -2874.57l162.63 -126.59c310.21,-241.38 764.68,-119.23 911.73,245.62l682.5 1693.57c-89.34,30.88 -177.15,66.45 -263.01,106.78l-1493.85 -1919.38zm1284.56 4995.28c-307.25,-636.39 -128.41,-1398.81 428.06,-1831.94 710.24,-552.82 1745.35,-357.36 2205.52,415.45 0.87,1.47 1.74,2.93 2.65,4.4l1945.39 3203.98 0 115.56 -2791.9 0 -1013.54 -1012.86 1104.74 -859.83c257.75,-200.58 304.05,-572.19 103.5,-829.9 -200.63,-257.75 -572.24,-304.05 -829.91,-103.5l-1154.51 898.64zm13073.07 10914.8c-47.71,286.34 -293.05,494.15 -583.34,494.15l-12268.03 0.01c-290.29,0 -535.59,-207.82 -583.22,-493.56l-904.11 -5459.63 15242.69 0 -903.99 5459.03zm1601.34 -6641.81l-16637.39 0c-326.1,0 -591.37,-265.3 -591.37,-591.37 0,-326.07 265.3,-591.37 591.37,-591.37 1031.79,0 15679.37,0 16637.39,0 326.1,0 591.37,265.3 591.37,591.37 0,326.07 -265.26,591.37 -591.37,591.37zm-631.18 -2385.59c26.01,-188.45 39.82,-379.07 39.82,-571.32 0,-1388.89 -687.59,-2620.22 -1740.18,-3371.49 645.37,-1032.87 1720.26,-1733.38 2922.95,-1908.16l0 2914.14 0 0.01c0,1104.96 -442.88,2161.79 -1222.59,2936.82z"/>
   </g>
  </g>
  <g id="_1285740192">
   <g>
    <circle class="fil0" cx="34246.99" cy="9003.48" r="591.36"/>
   </g>
  </g>
 </g>
</svg>
