<?xml version="1.0" encoding="UTF-8"?>
<!DOCTYPE svg PUBLIC "-//W3C//DTD SVG 1.1//EN" "http://www.w3.org/Graphics/SVG/1.1/DTD/svg11.dtd">
<!-- Creator: CorelDRAW 2018 (64 Bit Versão de avaliação) -->
<svg xmlns="http://www.w3.org/2000/svg" xml:space="preserve" width="270.933mm" height="203.2mm" version="1.1" style="shape-rendering:geometricPrecision; text-rendering:geometricPrecision; image-rendering:optimizeQuality; fill-rule:evenodd; clip-rule:evenodd"
viewBox="0 0 27093.32 20320"
 xmlns:xlink="http://www.w3.org/1999/xlink">
 <defs>
  <style type="text/css">
   <![CDATA[
    .fil0 {fill:#0071B7}
   ]]>
  </style>
 </defs>
 <g id="Camada_x0020_1">
  <metadata id="CorelCorpID_0Corel-Layer"/>
  <g id="engrenagem.svg">
   <g>
    <g>
     <path class="fil0" d="M22980.93 7257.15l-1228.64 0c-101.5,-288.56 -218.27,-571.5 -349.79,-847.64l870.86 -870.86c283.33,-283.37 283.33,-742.78 0,-1026.15l-3082.1 -3076.32c-283.41,-283.33 -742.78,-283.33 -1026.15,0l-870.86 870.86c-275.25,-132.16 -557.21,-249.9 -844.75,-352.68l0.01 -1228.63c0,-400.82 -324.91,-725.73 -725.73,-725.73l-4354.28 0c-400.82,0 -725.73,324.91 -725.73,725.73l0 1228.64c-288.68,101.71 -571.88,218.48 -848.36,349.79l-870.86 -870.86c-283.41,-283.28 -742.78,-283.28 -1026.15,0l-3075.59 3082.1c-283.33,283.37 -283.33,742.78 0,1026.15l870.86 870.86c-132.46,275.12 -250.16,557.13 -352.68,844.75l-1228.6 -0.01c-400.82,0 -725.73,324.91 -725.73,725.69l0 4354.28c0,400.82 324.91,725.73 725.73,725.73l1228.64 0c101.5,288.56 218.22,571.5 349.79,847.64l-870.86 870.86c-283.28,283.41 -283.28,742.78 0,1026.15l3079.21 3079.21c283.41,283.28 742.78,283.28 1026.15,0l870.86 -870.86c276.27,131.27 559.21,248.03 847.64,349.79l-0.01 1228.63c0,400.82 324.91,725.73 725.73,725.73l4354.28 0c400.82,0 725.73,-324.91 725.73,-725.73l0 -1228.64c288.68,-101.71 571.88,-218.48 848.36,-349.79l870.86 870.86c283.41,283.28 742.78,283.28 1026.15,0l3079.21 -3079.21c283.28,-283.37 283.28,-742.78 0,-1026.15l-870.86 -870.86c131.31,-276.14 247.82,-559.08 349.07,-847.64l1228.59 0.01c400.82,0 725.73,-324.91 725.73,-725.73l0 -4354.28c0,-400.78 -324.91,-725.69 -725.73,-725.69zm-725.73 4354.28l-1034.14 0c-324.49,0 -609.56,215.42 -698.13,527.57 -152.4,541.9 -367.69,1064.08 -641.53,1555.93 -160.27,284.35 -110.94,640.68 120.47,870.86l725.73 729.34 -2049.4 2049.4 -729.34 -725.73c-230.17,-231.41 -586.51,-280.73 -870.86,-120.47 -491.69,273.59 -1013.65,488.88 -1555.21,641.53 -312.45,88.32 -528.21,373.43 -528.34,698.13l0 1030.53 -2899.22 0.02 0 -1034.14c-0.09,-324.7 -215.84,-609.81 -528.34,-698.13 -541.56,-152.66 -1063.48,-367.95 -1555.21,-641.53 -284.35,-160.27 -640.68,-110.94 -870.86,120.47l-725.73 725.73 -2053.06 -2049.4 725.77 -729.36c231.41,-230.17 280.73,-586.51 120.47,-870.86 -273.84,-491.81 -489.13,-1014.03 -641.53,-1555.93 -89.55,-309.43 -372.37,-522.81 -694.52,-523.96l-1034.15 0 0 -2902.86 1034.15 0c324.49,0 609.56,-215.42 698.13,-527.57 152.4,-541.9 367.69,-1064.08 641.53,-1555.93 160.27,-284.35 110.94,-640.68 -120.47,-870.86l-725.73 -725.73 2049.4 -2053.06 725.73 725.73c230.17,231.41 586.51,280.73 870.86,120.47 491.69,-273.59 1013.65,-488.88 1555.21,-641.53 311.18,-87.94 526.6,-371.18 528.34,-694.52l0 -1034.14 2902.87 -0.02 0 1034.14c0.09,324.7 215.84,609.81 528.34,698.13 541.56,152.66 1063.48,367.95 1555.21,641.53 284.35,160.27 640.68,110.94 870.86,-120.47l729.34 -725.73 2049.4 2049.4 -725.73 725.73c-231.41,230.17 -280.73,586.51 -120.47,870.86 273.84,491.81 489.13,1014.03 641.53,1555.93 88.57,312.16 373.64,527.57 698.13,527.57l1030.55 0.02 0 2902.91 -0.05 0z"/>
    </g>
   </g>
   <g>
    <g>
     <path class="fil0" d="M13546.64 5080.01c-2805.62,0 -5080.01,2274.39 -5080.01,5080.01 0,2805.62 2274.43,5079.97 5080.01,5079.97 2805.58,0 5080.01,-2274.39 5080.01,-5080.01 -3.19,-2804.26 -2275.71,-5076.78 -5080.01,-5079.97zm0 8708.57c-2003.99,0 -3628.55,-1624.56 -3628.55,-3628.55 0,-2003.99 1624.56,-3628.55 3628.55,-3628.55 2003.99,0 3628.55,1624.56 3628.55,3628.55 -2.38,2002.96 -1625.54,3626.12 -3628.55,3628.55z"/>
    </g>
   </g>
   <g>
   </g>
   <g>
   </g>
   <g>
   </g>
   <g>
   </g>
   <g>
   </g>
   <g>
   </g>
   <g>
   </g>
   <g>
   </g>
   <g>
   </g>
   <g>
   </g>
   <g>
   </g>
   <g>
   </g>
   <g>
   </g>
   <g>
   </g>
   <g>
   </g>
  </g>
 </g>
</svg>
