<?xml version="1.0" encoding="UTF-8"?>
<!DOCTYPE svg PUBLIC "-//W3C//DTD SVG 1.1//EN" "http://www.w3.org/Graphics/SVG/1.1/DTD/svg11.dtd">
<!-- Creator: CorelDRAW 2018 (64 Bit Versão de avaliação) -->
<svg xmlns="http://www.w3.org/2000/svg" xml:space="preserve" width="270.933mm" height="203.2mm" version="1.1" style="shape-rendering:geometricPrecision; text-rendering:geometricPrecision; image-rendering:optimizeQuality; fill-rule:evenodd; clip-rule:evenodd"
viewBox="0 0 27093.32 20320"
 xmlns:xlink="http://www.w3.org/1999/xlink">
 <defs>
  <style type="text/css">
   <![CDATA[
    .fil0 {fill:#0071B7}
   ]]>
  </style>
 </defs>
 <g id="Camada_x0020_1">
  <metadata id="CorelCorpID_0Corel-Layer"/>
  <g id="lupa.svg">
   <g>
    <g>
     <path class="fil0" d="M22984.57 16012.77l-3344.43 -3344.44c608.08,-1216.16 1013.47,-2635.01 1013.47,-4053.87 -0.01,-4763.29 -3851.18,-8614.46 -8614.47,-8614.46 -4763.29,0 -8614.47,3851.17 -8614.47,8614.46 0,4763.29 3851.17,8614.46 8614.46,8614.46 1418.85,0 2837.71,-405.39 4053.87,-1013.47l3344.44 3344.44c1013.47,1013.47 2533.67,1013.47 3547.13,0 912.12,-1013.46 912.12,-2533.66 0,-3547.12zm-10945.43 -810.78c-3648.48,0 -6587.53,-2939.05 -6587.53,-6587.53 0,-3648.48 2939.05,-6587.53 6587.53,-6587.53 3648.48,0 6587.53,2939.05 6587.53,6587.53 0,3648.48 -2939.05,6587.53 -6587.53,6587.53z"/>
    </g>
   </g>
   <g>
   </g>
   <g>
   </g>
   <g>
   </g>
   <g>
   </g>
   <g>
   </g>
   <g>
   </g>
   <g>
   </g>
   <g>
   </g>
   <g>
   </g>
   <g>
   </g>
   <g>
   </g>
   <g>
   </g>
   <g>
   </g>
   <g>
   </g>
   <g>
   </g>
  </g>
 </g>
</svg>
